<?xml version="1.0" encoding="UTF-8"?>
<svg id="Layer_1" data-name="Layer 1" xmlns="http://www.w3.org/2000/svg" viewBox="0 0 588.5715 261.2544">
  <path id="fullLogo" d="M305.2242,173.3066c-8.2341,0-15.1551-3.6988-20.0478-10.3808v9.1879h-15.2744V86.4334h16.5871v30.192c4.6536-6.2048,11.098-9.4265,18.7352-9.4265,17.1835,0,28.2815,14.1999,28.2815,33.0529,0,18.6164-11.098,33.0548-28.2815,33.0548Zm-3.6993-51.4307c-7.9956,0-14.9166,6.0865-14.9166,18.1373s6.6824,18.4981,14.9166,18.4981c8.1144,0,14.9161-6.3251,14.9161-18.2595,0-12.171-6.8017-18.3759-14.9161-18.3759Z" style="fill: #daaa00;"/>
  <path id="fullLogo-2" data-name="fullLogo" d="M341.8581,172.3524h15.9906c.7157,7.2794,5.3698,11.0985,13.2456,11.0985,9.1884,0,13.9618-4.8917,13.9618-14.0816v-9.3082c-3.4608,6.0865-10.0239,9.667-17.7804,9.667-15.6323,0-27.3267-13.2456-27.3267-31.2646,0-18.4961,10.9782-31.2646,26.7303-31.2646,8.5915,0,15.0354,3.34,19.6895,9.9036v-8.7108h15.1551v60.7389c0,16.9444-11.4558,27.2089-30.3103,27.2089-17.1835,0-28.6393-9.3082-29.3555-23.9872Zm28.6398-16.9444c8.7108,0,14.4389-6.8022,14.4389-16.8261,0-10.3808-5.7282-17.0647-14.4389-17.0647-8.4727,0-13.9618,6.5636-13.9618,16.9464s5.3698,16.9444,13.9618,16.9444Z" style="fill: #daaa00;"/>
  <path id="fullLogo-3" data-name="fullLogo" d="M412.3808,172.1138v-63.722h15.2744v9.0696c4.6541-6.4454,10.6203-10.2625,19.0925-10.2625,8.7118,0,15.3937,4.0557,18.6164,11.3351,5.012-7.0408,11.4553-11.3351,21.0021-11.3351,12.8877,0,21.5985,8.4722,21.5985,23.7467v41.1682h-16.4673v-35.9177c0-8.9513-3.8191-14.3202-11.0975-14.3202-6.5636,0-11.9335,5.1303-11.9335,14.677v35.5608h-16.4683v-35.9177c0-8.9513-3.8181-14.3202-11.0975-14.3202-6.6829,0-11.9335,5.1303-11.9335,14.677v35.5608h-16.5866Z" style="fill: #daaa00;"/>
  <path id="fullLogo-4" data-name="fullLogo" d="M224.8498,119.6403c.5023-2.0153,.7732-4.1212,.7732-6.2897,0-14.3452-11.6708-26.0165-26.0165-26.0165v.0542c-3.6674,0-7.6587,.6865-11.7699,1.8524-9.6309-10.0778-22.9525-15.8091-36.9629-15.8091-4.4172,0-8.705,.5639-12.7962,1.6221-11.3704-5.6508-24.198-10.0956-35.9366-10.0956v-.0432c-20.5266,0-37.2261,16.6999-37.2261,37.2261,0,10.7923,4.6207,20.5224,11.9828,27.328-.5023,2.0153-.7732,4.1212-.7732,6.2897,0,14.3452,11.6708,26.0165,26.0652,26.0165,3.6706,0,7.6655-.6877,11.7802-1.8552,9.6249,10.0377,22.9401,15.7578,36.9039,15.7578,4.4172,0,8.705-.5639,12.7962-1.6221,11.3704,5.6508,24.198,10.0956,35.9366,10.0956v.0432c20.5266,0,37.2261-16.6999,37.2261-37.2261,0-10.7923-4.6207-20.5224-11.9828-27.328Zm-124.5213,12.4725c-5.4823-.3282-10.5732-2.1303-14.8785-5.0196,2.8736-5.5122,8.3864-9.435,14.8589-10.0635-.3641,2.4571-.5583,4.9687-.5583,7.5254,0,2.536,.208,5.0621,.578,7.5576Zm7.2077-.414c-.3844-2.3527-.5909-4.7428-.5909-7.1436,0-2.4118,.2034-4.776,.5791-7.0833,6.0365,1.0959,12.8633,3.7841,19.4288,7.1227-6.564,3.3341-13.3865,6.0153-19.4169,7.1042Zm1.7297-21.2021c1.6019-4.728,3.9857-9.095,7.0009-12.95,10.2613,3.686,21.0711,10.0991,28.7758,15.8569-3.0962,2.3089-6.7125,4.7362-10.5956,7.053-8.0583-4.4784-17.0278-8.3798-25.1812-9.9599Zm41.6062-1.6923c-7.5796-5.873-18.5384-12.6204-29.3098-16.9345,4.539-4.0747,9.928-7.2168,15.8651-9.1306,9.8966,5.1977,18.4694,11.2394,23.6075,15.4942,.801,.663,1.6518,1.3287,2.5253,1.9944-4.8364,2.8861-9.2063,5.8875-12.6881,8.5764Zm.0016,9.2023c2.6882,2.0762,5.9046,4.3382,9.4581,6.5904-3.5552,2.2552-6.7722,4.5201-9.4578,6.5971-2.6856-2.0769-5.9029-4.3417-9.4584-6.5971,3.5535-2.2522,6.7699-4.5142,9.4581-6.5904Zm.0017,22.3898c7.5759,5.8625,18.5056,12.5882,29.2506,16.8939-4.5269,4.0495-9.8943,7.174-15.8061,9.0796-9.8966-5.1977-18.4695-11.2394-23.6079-15.4942-.7828-.6478-1.6124-1.2976-2.4631-1.9472,4.8094-2.8708,9.1558-5.8548,12.6265-8.5321Zm34.5603,11.223c-10.2412-3.6787-21.0284-10.0737-28.7311-15.8238,3.0942-2.3101,6.7123-4.7403,10.5979-7.0606,8.0546,4.472,17.0147,8.3647,25.1583,9.9382-1.6096,4.728-4.0017,9.0939-7.0251,12.9462Zm8.7869-34.1477c.3776,2.3328,.5791,4.7033,.5791,7.0833,0,2.4329-.2077,4.8172-.5899,7.1436-6.0307-1.0889-12.8535-3.7702-19.4178-7.1045,6.5652-3.3384,13.3922-6.0266,19.4287-7.1225Zm7.1973-.4751c5.4819,.3283,10.5724,2.1303,14.8775,5.0194-2.8737,5.5123-8.3867,9.4351-14.8592,10.0635,.364-2.4567,.5582-4.9681,.5582-7.5245,0-2.5369-.2067-5.0633-.5765-7.5585Zm-1.8134-22.4679c10.3785,0,18.8218,8.4433,18.8218,18.8218,0,.4985-.0366,.988-.0748,1.4769-5.497-3.2188-11.8838-5.0753-18.6988-5.0841v-.0012c-.0078,0-.016,.0006-.0238,.0006-.0082,0-.0162-.0006-.0243-.0006v.0013c-9.7649,.0158-21.8113,4.8804-32.3063,10.7131-3.8822-2.3163-7.4977-4.743-10.5935-7.0515,11.5136-8.5847,30.2554-18.822,42.8998-18.822v-.0542Zm-48.7328-13.9026c10.9038,0,21.3151,4.0518,29.3324,11.2489-3.2841,1.3161-6.5638,2.8476-9.7431,4.5003-1.7442-1.2302-3.3667-2.4645-4.8401-3.6844-4.03-3.3368-10.0712-7.708-17.2312-11.9904,.822-.046,1.6486-.0744,2.482-.0744Zm-78.7642,21.5148c0-16.5594,13.472-30.0314,30.0314-30.0314v.0432c8.5144,0,17.7458,2.6387,26.4798,6.3835-12.7247,6.1783-22.5126,17.4827-26.6754,31.2109-9.3368,.0694-17.5199,5.0784-22.0547,12.5413-4.8326-5.332-7.781-12.4016-7.781-20.1475Zm30.0314,52.4395c-10.3785,0-18.8218-8.4433-18.8218-18.8218,0-.4985,.0366-.988,.0748-1.4769,5.5101,3.2264,11.9138,5.0853,18.747,5.0853v.0552c9.7569,0,21.8031-4.8571,32.3036-10.6871,3.8848,2.3199,7.5023,4.7496,10.5962,7.0594-11.5173,8.5773-30.2276,18.7859-42.8998,18.7859Zm48.7328,13.9026c-10.8626,0-21.2659-4.0336-29.2773-11.1967,3.288-1.3178,6.5716-2.8515,9.7542-4.5066,1.7166,1.2131,3.3166,2.4326,4.7739,3.6386,4.03,3.3368,10.0712,7.7079,17.2312,11.9904-.822,.046-1.6486,.0744-2.482,.0744Zm48.7328,8.5166v-.0432c-8.5144,0-17.7456-2.6387-26.4797-6.3835,12.7247-6.1783,22.5125-17.4826,26.6751-31.2109,9.3368-.0694,17.5201-5.0783,22.055-12.5413,4.8326,5.332,7.781,12.4016,7.781,20.1475,0,16.5594-13.472,30.0314-30.0314,30.0314Z" style="fill: #daaa00;"/>
  <path id="fullLogo-5" data-name="fullLogo" d="M512.238,104.8962v6.1776h-1.7055v-6.1776h-2.3573v-1.5721h6.421v1.5721h-2.3582Z" style="fill: #daaa00;"/>
  <path id="fullLogo-6" data-name="fullLogo" d="M521.9619,111.0738v-5.0593l-2.1806,3.3101h-.0442l-2.159-3.2767v5.026h-1.6713v-7.7497h1.8371l2.0373,3.2772,2.0373-3.2772h1.838v7.7497h-1.6947Z" style="fill: #daaa00;"/>
</svg>